<mxfile host="app.diagrams.net" agent="Mozilla/5.0 (Windows NT 10.0; Win64; x64) AppleWebKit/537.36 (KHTML, like Gecko) Chrome/134.0.0.0 Safari/537.36" version="26.1.1">
  <diagram name="Страница — 1" id="1grz1y0yEgNq27gtP14z">
    <mxGraphModel dx="1554" dy="1620" grid="1" gridSize="10" guides="1" tooltips="1" connect="1" arrows="1" fold="1" page="1" pageScale="1" pageWidth="827" pageHeight="1169" math="0" shadow="0">
      <root>
        <mxCell id="0" />
        <mxCell id="1" parent="0" />
        <mxCell id="7x0IxUIYHhtHnQcjcIC3-1" value="Пользователь" style="shape=umlActor;verticalLabelPosition=bottom;verticalAlign=top;html=1;outlineConnect=0;" parent="1" vertex="1">
          <mxGeometry x="60" y="130" width="30" height="60" as="geometry" />
        </mxCell>
        <mxCell id="7x0IxUIYHhtHnQcjcIC3-2" value="" style="endArrow=classic;html=1;rounded=0;entryX=0;entryY=0.25;entryDx=0;entryDy=0;" parent="1" source="7x0IxUIYHhtHnQcjcIC3-1" target="7x0IxUIYHhtHnQcjcIC3-5" edge="1">
          <mxGeometry width="50" height="50" relative="1" as="geometry">
            <mxPoint x="160" y="200" as="sourcePoint" />
            <mxPoint x="190" y="160" as="targetPoint" />
          </mxGeometry>
        </mxCell>
        <mxCell id="7x0IxUIYHhtHnQcjcIC3-5" value="Frontend" style="swimlane;fontStyle=0;childLayout=stackLayout;horizontal=1;startSize=30;horizontalStack=0;resizeParent=1;resizeParentMax=0;resizeLast=0;collapsible=1;marginBottom=0;whiteSpace=wrap;html=1;" parent="1" vertex="1">
          <mxGeometry x="140" y="130" width="140" height="150" as="geometry" />
        </mxCell>
        <mxCell id="7x0IxUIYHhtHnQcjcIC3-6" value="Html Css JS Vue" style="text;strokeColor=none;fillColor=none;align=left;verticalAlign=middle;spacingLeft=4;spacingRight=4;overflow=hidden;points=[[0,0.5],[1,0.5]];portConstraint=eastwest;rotatable=0;whiteSpace=wrap;html=1;" parent="7x0IxUIYHhtHnQcjcIC3-5" vertex="1">
          <mxGeometry y="30" width="140" height="30" as="geometry" />
        </mxCell>
        <mxCell id="7x0IxUIYHhtHnQcjcIC3-7" value="Форма для запросов" style="text;strokeColor=none;fillColor=none;align=left;verticalAlign=middle;spacingLeft=4;spacingRight=4;overflow=hidden;points=[[0,0.5],[1,0.5]];portConstraint=eastwest;rotatable=0;whiteSpace=wrap;html=1;" parent="7x0IxUIYHhtHnQcjcIC3-5" vertex="1">
          <mxGeometry y="60" width="140" height="30" as="geometry" />
        </mxCell>
        <mxCell id="7x0IxUIYHhtHnQcjcIC3-8" value="Авторизация - базовые права&amp;nbsp;" style="text;strokeColor=none;fillColor=none;align=left;verticalAlign=middle;spacingLeft=4;spacingRight=4;overflow=hidden;points=[[0,0.5],[1,0.5]];portConstraint=eastwest;rotatable=0;whiteSpace=wrap;html=1;" parent="7x0IxUIYHhtHnQcjcIC3-5" vertex="1">
          <mxGeometry y="90" width="140" height="30" as="geometry" />
        </mxCell>
        <mxCell id="7x0IxUIYHhtHnQcjcIC3-55" value="Регистрация" style="text;strokeColor=none;fillColor=none;align=left;verticalAlign=middle;spacingLeft=4;spacingRight=4;overflow=hidden;points=[[0,0.5],[1,0.5]];portConstraint=eastwest;rotatable=0;whiteSpace=wrap;html=1;" parent="7x0IxUIYHhtHnQcjcIC3-5" vertex="1">
          <mxGeometry y="120" width="140" height="30" as="geometry" />
        </mxCell>
        <mxCell id="7x0IxUIYHhtHnQcjcIC3-12" value="Автор" style="shape=umlActor;verticalLabelPosition=bottom;verticalAlign=top;html=1;outlineConnect=0;" parent="1" vertex="1">
          <mxGeometry x="60" y="330" width="30" height="60" as="geometry" />
        </mxCell>
        <mxCell id="7x0IxUIYHhtHnQcjcIC3-13" value="" style="endArrow=classic;html=1;rounded=0;entryX=0;entryY=0.25;entryDx=0;entryDy=0;" parent="1" source="7x0IxUIYHhtHnQcjcIC3-12" target="7x0IxUIYHhtHnQcjcIC3-15" edge="1">
          <mxGeometry width="50" height="50" relative="1" as="geometry">
            <mxPoint x="160" y="390" as="sourcePoint" />
            <mxPoint x="190" y="350" as="targetPoint" />
          </mxGeometry>
        </mxCell>
        <mxCell id="7x0IxUIYHhtHnQcjcIC3-15" value="Frontend" style="swimlane;fontStyle=0;childLayout=stackLayout;horizontal=1;startSize=30;horizontalStack=0;resizeParent=1;resizeParentMax=0;resizeLast=0;collapsible=1;marginBottom=0;whiteSpace=wrap;html=1;" parent="1" vertex="1">
          <mxGeometry x="140" y="320" width="140" height="210" as="geometry" />
        </mxCell>
        <mxCell id="7x0IxUIYHhtHnQcjcIC3-16" value="Html Css JS Vue" style="text;strokeColor=none;fillColor=none;align=left;verticalAlign=middle;spacingLeft=4;spacingRight=4;overflow=hidden;points=[[0,0.5],[1,0.5]];portConstraint=eastwest;rotatable=0;whiteSpace=wrap;html=1;" parent="7x0IxUIYHhtHnQcjcIC3-15" vertex="1">
          <mxGeometry y="30" width="140" height="30" as="geometry" />
        </mxCell>
        <mxCell id="7x0IxUIYHhtHnQcjcIC3-17" value="Форма для запросов" style="text;strokeColor=none;fillColor=none;align=left;verticalAlign=middle;spacingLeft=4;spacingRight=4;overflow=hidden;points=[[0,0.5],[1,0.5]];portConstraint=eastwest;rotatable=0;whiteSpace=wrap;html=1;" parent="7x0IxUIYHhtHnQcjcIC3-15" vertex="1">
          <mxGeometry y="60" width="140" height="30" as="geometry" />
        </mxCell>
        <mxCell id="7x0IxUIYHhtHnQcjcIC3-19" value="Форма для добавления" style="text;strokeColor=none;fillColor=none;align=left;verticalAlign=middle;spacingLeft=4;spacingRight=4;overflow=hidden;points=[[0,0.5],[1,0.5]];portConstraint=eastwest;rotatable=0;whiteSpace=wrap;html=1;" parent="7x0IxUIYHhtHnQcjcIC3-15" vertex="1">
          <mxGeometry y="90" width="140" height="30" as="geometry" />
        </mxCell>
        <mxCell id="aQBt-oqZlBP0JVeV2wJ8-1" value="Просмотр своих статей" style="text;strokeColor=none;fillColor=none;align=left;verticalAlign=middle;spacingLeft=4;spacingRight=4;overflow=hidden;points=[[0,0.5],[1,0.5]];portConstraint=eastwest;rotatable=0;whiteSpace=wrap;html=1;" vertex="1" parent="7x0IxUIYHhtHnQcjcIC3-15">
          <mxGeometry y="120" width="140" height="30" as="geometry" />
        </mxCell>
        <mxCell id="7x0IxUIYHhtHnQcjcIC3-18" value="Авторизация - роль автора" style="text;strokeColor=none;fillColor=none;align=left;verticalAlign=middle;spacingLeft=4;spacingRight=4;overflow=hidden;points=[[0,0.5],[1,0.5]];portConstraint=eastwest;rotatable=0;whiteSpace=wrap;html=1;" parent="7x0IxUIYHhtHnQcjcIC3-15" vertex="1">
          <mxGeometry y="150" width="140" height="30" as="geometry" />
        </mxCell>
        <mxCell id="7x0IxUIYHhtHnQcjcIC3-56" value="Регистрация" style="text;strokeColor=none;fillColor=none;align=left;verticalAlign=middle;spacingLeft=4;spacingRight=4;overflow=hidden;points=[[0,0.5],[1,0.5]];portConstraint=eastwest;rotatable=0;whiteSpace=wrap;html=1;" parent="7x0IxUIYHhtHnQcjcIC3-15" vertex="1">
          <mxGeometry y="180" width="140" height="30" as="geometry" />
        </mxCell>
        <mxCell id="7x0IxUIYHhtHnQcjcIC3-20" value="" style="endArrow=classic;html=1;rounded=0;exitX=1;exitY=0.25;exitDx=0;exitDy=0;entryX=0;entryY=0.25;entryDx=0;entryDy=0;" parent="1" source="7x0IxUIYHhtHnQcjcIC3-5" target="7x0IxUIYHhtHnQcjcIC3-22" edge="1">
          <mxGeometry width="50" height="50" relative="1" as="geometry">
            <mxPoint x="410" y="240" as="sourcePoint" />
            <mxPoint x="390" y="260" as="targetPoint" />
          </mxGeometry>
        </mxCell>
        <mxCell id="7x0IxUIYHhtHnQcjcIC3-21" value="" style="endArrow=classic;html=1;rounded=0;exitX=1;exitY=0.25;exitDx=0;exitDy=0;entryX=0;entryY=0.25;entryDx=0;entryDy=0;" parent="1" source="7x0IxUIYHhtHnQcjcIC3-15" target="7x0IxUIYHhtHnQcjcIC3-22" edge="1">
          <mxGeometry width="50" height="50" relative="1" as="geometry">
            <mxPoint x="390" y="340" as="sourcePoint" />
            <mxPoint x="380" y="310" as="targetPoint" />
          </mxGeometry>
        </mxCell>
        <mxCell id="7x0IxUIYHhtHnQcjcIC3-22" value="Web server" style="swimlane;fontStyle=0;childLayout=stackLayout;horizontal=1;startSize=30;horizontalStack=0;resizeParent=1;resizeParentMax=0;resizeLast=0;collapsible=1;marginBottom=0;whiteSpace=wrap;html=1;" parent="1" vertex="1">
          <mxGeometry x="320" y="230" width="140" height="130" as="geometry" />
        </mxCell>
        <mxCell id="7x0IxUIYHhtHnQcjcIC3-23" value="Nginx" style="text;strokeColor=none;fillColor=none;align=left;verticalAlign=middle;spacingLeft=4;spacingRight=4;overflow=hidden;points=[[0,0.5],[1,0.5]];portConstraint=eastwest;rotatable=0;whiteSpace=wrap;html=1;" parent="7x0IxUIYHhtHnQcjcIC3-22" vertex="1">
          <mxGeometry y="30" width="140" height="30" as="geometry" />
        </mxCell>
        <mxCell id="7x0IxUIYHhtHnQcjcIC3-24" value="Отдельный docker контейнер" style="text;strokeColor=none;fillColor=none;align=left;verticalAlign=middle;spacingLeft=4;spacingRight=4;overflow=hidden;points=[[0,0.5],[1,0.5]];portConstraint=eastwest;rotatable=0;whiteSpace=wrap;html=1;" parent="7x0IxUIYHhtHnQcjcIC3-22" vertex="1">
          <mxGeometry y="60" width="140" height="30" as="geometry" />
        </mxCell>
        <mxCell id="7x0IxUIYHhtHnQcjcIC3-25" value="Порт 443 с SSL, белый ip" style="text;strokeColor=none;fillColor=none;align=left;verticalAlign=middle;spacingLeft=4;spacingRight=4;overflow=hidden;points=[[0,0.5],[1,0.5]];portConstraint=eastwest;rotatable=0;whiteSpace=wrap;html=1;" parent="7x0IxUIYHhtHnQcjcIC3-22" vertex="1">
          <mxGeometry y="90" width="140" height="40" as="geometry" />
        </mxCell>
        <mxCell id="7x0IxUIYHhtHnQcjcIC3-62" style="edgeStyle=orthogonalEdgeStyle;rounded=0;orthogonalLoop=1;jettySize=auto;html=1;entryX=0;entryY=0.25;entryDx=0;entryDy=0;" parent="1" source="7x0IxUIYHhtHnQcjcIC3-26" target="7x0IxUIYHhtHnQcjcIC3-58" edge="1">
          <mxGeometry relative="1" as="geometry">
            <Array as="points">
              <mxPoint x="560" y="63" />
              <mxPoint x="755" y="63" />
            </Array>
          </mxGeometry>
        </mxCell>
        <mxCell id="7x0IxUIYHhtHnQcjcIC3-26" value="Gateway_service" style="swimlane;fontStyle=0;childLayout=stackLayout;horizontal=1;startSize=30;horizontalStack=0;resizeParent=1;resizeParentMax=0;resizeLast=0;collapsible=1;marginBottom=0;whiteSpace=wrap;html=1;" parent="1" vertex="1">
          <mxGeometry x="490" y="250" width="140" height="130" as="geometry" />
        </mxCell>
        <mxCell id="7x0IxUIYHhtHnQcjcIC3-27" value="Golang + Gin для Frontend" style="text;strokeColor=none;fillColor=none;align=left;verticalAlign=middle;spacingLeft=4;spacingRight=4;overflow=hidden;points=[[0,0.5],[1,0.5]];portConstraint=eastwest;rotatable=0;whiteSpace=wrap;html=1;" parent="7x0IxUIYHhtHnQcjcIC3-26" vertex="1">
          <mxGeometry y="30" width="140" height="30" as="geometry" />
        </mxCell>
        <mxCell id="7x0IxUIYHhtHnQcjcIC3-28" value="gRPC для связи между сервисами" style="text;strokeColor=none;fillColor=none;align=left;verticalAlign=middle;spacingLeft=4;spacingRight=4;overflow=hidden;points=[[0,0.5],[1,0.5]];portConstraint=eastwest;rotatable=0;whiteSpace=wrap;html=1;" parent="7x0IxUIYHhtHnQcjcIC3-26" vertex="1">
          <mxGeometry y="60" width="140" height="30" as="geometry" />
        </mxCell>
        <mxCell id="7x0IxUIYHhtHnQcjcIC3-57" value="Проверка прав доступа" style="text;strokeColor=none;fillColor=none;align=left;verticalAlign=middle;spacingLeft=4;spacingRight=4;overflow=hidden;points=[[0,0.5],[1,0.5]];portConstraint=eastwest;rotatable=0;whiteSpace=wrap;html=1;" parent="7x0IxUIYHhtHnQcjcIC3-26" vertex="1">
          <mxGeometry y="90" width="140" height="40" as="geometry" />
        </mxCell>
        <mxCell id="7x0IxUIYHhtHnQcjcIC3-31" value="" style="endArrow=classic;html=1;rounded=0;exitX=1;exitY=0.5;exitDx=0;exitDy=0;entryX=0;entryY=0.25;entryDx=0;entryDy=0;" parent="1" source="7x0IxUIYHhtHnQcjcIC3-23" target="7x0IxUIYHhtHnQcjcIC3-26" edge="1">
          <mxGeometry width="50" height="50" relative="1" as="geometry">
            <mxPoint x="550" y="460" as="sourcePoint" />
            <mxPoint x="600" y="410" as="targetPoint" />
          </mxGeometry>
        </mxCell>
        <mxCell id="7x0IxUIYHhtHnQcjcIC3-42" value="" style="edgeStyle=orthogonalEdgeStyle;rounded=0;orthogonalLoop=1;jettySize=auto;html=1;entryX=0;entryY=0.5;entryDx=0;entryDy=0;" parent="1" source="7x0IxUIYHhtHnQcjcIC3-32" target="7x0IxUIYHhtHnQcjcIC3-39" edge="1">
          <mxGeometry relative="1" as="geometry" />
        </mxCell>
        <mxCell id="7x0IxUIYHhtHnQcjcIC3-32" value="Балансировщик нагрузки" style="swimlane;fontStyle=0;childLayout=stackLayout;horizontal=1;startSize=30;horizontalStack=0;resizeParent=1;resizeParentMax=0;resizeLast=0;collapsible=1;marginBottom=0;whiteSpace=wrap;html=1;" parent="1" vertex="1">
          <mxGeometry x="680" y="250" width="140" height="90" as="geometry" />
        </mxCell>
        <mxCell id="7x0IxUIYHhtHnQcjcIC3-34" value="Улучшение отзывчивости системы в условиях нагрузки" style="text;strokeColor=none;fillColor=none;align=left;verticalAlign=middle;spacingLeft=4;spacingRight=4;overflow=hidden;points=[[0,0.5],[1,0.5]];portConstraint=eastwest;rotatable=0;whiteSpace=wrap;html=1;" parent="7x0IxUIYHhtHnQcjcIC3-32" vertex="1">
          <mxGeometry y="30" width="140" height="60" as="geometry" />
        </mxCell>
        <mxCell id="7x0IxUIYHhtHnQcjcIC3-37" value="" style="edgeStyle=orthogonalEdgeStyle;rounded=0;orthogonalLoop=1;jettySize=auto;html=1;entryX=0;entryY=0.25;entryDx=0;entryDy=0;" parent="1" source="7x0IxUIYHhtHnQcjcIC3-27" target="7x0IxUIYHhtHnQcjcIC3-32" edge="1">
          <mxGeometry relative="1" as="geometry" />
        </mxCell>
        <mxCell id="7x0IxUIYHhtHnQcjcIC3-38" value="Сервисы AL&amp;nbsp;" style="swimlane;fontStyle=0;childLayout=stackLayout;horizontal=1;startSize=30;horizontalStack=0;resizeParent=1;resizeParentMax=0;resizeLast=0;collapsible=1;marginBottom=0;whiteSpace=wrap;html=1;" parent="1" vertex="1">
          <mxGeometry x="880" y="190" width="140" height="200" as="geometry" />
        </mxCell>
        <mxCell id="7x0IxUIYHhtHnQcjcIC3-39" value="Семантический поиск релевантных статей" style="text;strokeColor=none;fillColor=none;align=left;verticalAlign=middle;spacingLeft=4;spacingRight=4;overflow=hidden;points=[[0,0.5],[1,0.5]];portConstraint=eastwest;rotatable=0;whiteSpace=wrap;html=1;" parent="7x0IxUIYHhtHnQcjcIC3-38" vertex="1">
          <mxGeometry y="30" width="140" height="40" as="geometry" />
        </mxCell>
        <mxCell id="7x0IxUIYHhtHnQcjcIC3-40" value="Конечная обработка запросов на добавление" style="text;strokeColor=none;fillColor=none;align=left;verticalAlign=middle;spacingLeft=4;spacingRight=4;overflow=hidden;points=[[0,0.5],[1,0.5]];portConstraint=eastwest;rotatable=0;whiteSpace=wrap;html=1;" parent="7x0IxUIYHhtHnQcjcIC3-38" vertex="1">
          <mxGeometry y="70" width="140" height="50" as="geometry" />
        </mxCell>
        <mxCell id="7x0IxUIYHhtHnQcjcIC3-41" value="Поиск связных статей при помощи графа связей" style="text;strokeColor=none;fillColor=none;align=left;verticalAlign=middle;spacingLeft=4;spacingRight=4;overflow=hidden;points=[[0,0.5],[1,0.5]];portConstraint=eastwest;rotatable=0;whiteSpace=wrap;html=1;" parent="7x0IxUIYHhtHnQcjcIC3-38" vertex="1">
          <mxGeometry y="120" width="140" height="50" as="geometry" />
        </mxCell>
        <mxCell id="7x0IxUIYHhtHnQcjcIC3-43" value="Python torch + gRPC" style="text;strokeColor=none;fillColor=none;align=left;verticalAlign=middle;spacingLeft=4;spacingRight=4;overflow=hidden;points=[[0,0.5],[1,0.5]];portConstraint=eastwest;rotatable=0;whiteSpace=wrap;html=1;" parent="7x0IxUIYHhtHnQcjcIC3-38" vertex="1">
          <mxGeometry y="170" width="140" height="30" as="geometry" />
        </mxCell>
        <mxCell id="7x0IxUIYHhtHnQcjcIC3-44" value="Сервис авторизации" style="swimlane;fontStyle=0;childLayout=stackLayout;horizontal=1;startSize=30;horizontalStack=0;resizeParent=1;resizeParentMax=0;resizeLast=0;collapsible=1;marginBottom=0;whiteSpace=wrap;html=1;" parent="1" vertex="1">
          <mxGeometry x="680" y="410" width="140" height="200" as="geometry">
            <mxRectangle x="680" y="410" width="160" height="30" as="alternateBounds" />
          </mxGeometry>
        </mxCell>
        <mxCell id="7x0IxUIYHhtHnQcjcIC3-45" value="Golang + gRPC + pgx" style="text;strokeColor=none;fillColor=none;align=left;verticalAlign=middle;spacingLeft=4;spacingRight=4;overflow=hidden;points=[[0,0.5],[1,0.5]];portConstraint=eastwest;rotatable=0;whiteSpace=wrap;html=1;" parent="7x0IxUIYHhtHnQcjcIC3-44" vertex="1">
          <mxGeometry y="30" width="140" height="30" as="geometry" />
        </mxCell>
        <mxCell id="7x0IxUIYHhtHnQcjcIC3-46" value="Распределяет роли и позволяет авторизироваться в различных приложениях с различными ролями" style="text;strokeColor=none;fillColor=none;align=left;verticalAlign=middle;spacingLeft=4;spacingRight=4;overflow=hidden;points=[[0,0.5],[1,0.5]];portConstraint=eastwest;rotatable=0;whiteSpace=wrap;html=1;" parent="7x0IxUIYHhtHnQcjcIC3-44" vertex="1">
          <mxGeometry y="60" width="140" height="90" as="geometry" />
        </mxCell>
        <mxCell id="7x0IxUIYHhtHnQcjcIC3-54" value="Генерация JWT токена для соответствующего приложения" style="text;strokeColor=none;fillColor=none;align=left;verticalAlign=middle;spacingLeft=4;spacingRight=4;overflow=hidden;points=[[0,0.5],[1,0.5]];portConstraint=eastwest;rotatable=0;whiteSpace=wrap;html=1;" parent="7x0IxUIYHhtHnQcjcIC3-44" vertex="1">
          <mxGeometry y="150" width="140" height="50" as="geometry" />
        </mxCell>
        <mxCell id="7x0IxUIYHhtHnQcjcIC3-48" style="edgeStyle=orthogonalEdgeStyle;rounded=0;orthogonalLoop=1;jettySize=auto;html=1;entryX=0;entryY=0.25;entryDx=0;entryDy=0;" parent="1" source="7x0IxUIYHhtHnQcjcIC3-28" target="7x0IxUIYHhtHnQcjcIC3-44" edge="1">
          <mxGeometry relative="1" as="geometry" />
        </mxCell>
        <mxCell id="7x0IxUIYHhtHnQcjcIC3-49" value="PostgreSQL" style="swimlane;fontStyle=0;childLayout=stackLayout;horizontal=1;startSize=30;horizontalStack=0;resizeParent=1;resizeParentMax=0;resizeLast=0;collapsible=1;marginBottom=0;whiteSpace=wrap;html=1;" parent="1" vertex="1">
          <mxGeometry x="880" y="410" width="140" height="90" as="geometry" />
        </mxCell>
        <mxCell id="7x0IxUIYHhtHnQcjcIC3-50" value="Хранение данных пользователей&amp;nbsp;" style="text;strokeColor=none;fillColor=none;align=left;verticalAlign=middle;spacingLeft=4;spacingRight=4;overflow=hidden;points=[[0,0.5],[1,0.5]];portConstraint=eastwest;rotatable=0;whiteSpace=wrap;html=1;" parent="7x0IxUIYHhtHnQcjcIC3-49" vertex="1">
          <mxGeometry y="30" width="140" height="30" as="geometry" />
        </mxCell>
        <mxCell id="7x0IxUIYHhtHnQcjcIC3-51" value="Хранение данных приложений" style="text;strokeColor=none;fillColor=none;align=left;verticalAlign=middle;spacingLeft=4;spacingRight=4;overflow=hidden;points=[[0,0.5],[1,0.5]];portConstraint=eastwest;rotatable=0;whiteSpace=wrap;html=1;" parent="7x0IxUIYHhtHnQcjcIC3-49" vertex="1">
          <mxGeometry y="60" width="140" height="30" as="geometry" />
        </mxCell>
        <mxCell id="7x0IxUIYHhtHnQcjcIC3-53" value="" style="edgeStyle=orthogonalEdgeStyle;rounded=0;orthogonalLoop=1;jettySize=auto;html=1;entryX=0;entryY=0.25;entryDx=0;entryDy=0;" parent="1" source="7x0IxUIYHhtHnQcjcIC3-45" target="7x0IxUIYHhtHnQcjcIC3-49" edge="1">
          <mxGeometry relative="1" as="geometry" />
        </mxCell>
        <mxCell id="7x0IxUIYHhtHnQcjcIC3-58" value="ElasticSearch" style="swimlane;fontStyle=0;childLayout=stackLayout;horizontal=1;startSize=30;horizontalStack=0;resizeParent=1;resizeParentMax=0;resizeLast=0;collapsible=1;marginBottom=0;whiteSpace=wrap;html=1;" parent="1" vertex="1">
          <mxGeometry x="1110" y="30" width="140" height="130" as="geometry" />
        </mxCell>
        <mxCell id="7x0IxUIYHhtHnQcjcIC3-59" value="Логирование всех приложения для отлова ошибок" style="text;strokeColor=none;fillColor=none;align=left;verticalAlign=middle;spacingLeft=4;spacingRight=4;overflow=hidden;points=[[0,0.5],[1,0.5]];portConstraint=eastwest;rotatable=0;whiteSpace=wrap;html=1;" parent="7x0IxUIYHhtHnQcjcIC3-58" vertex="1">
          <mxGeometry y="30" width="140" height="50" as="geometry" />
        </mxCell>
        <mxCell id="7x0IxUIYHhtHnQcjcIC3-60" value="Сбор метрик и трейсов для определения нагрузки" style="text;strokeColor=none;fillColor=none;align=left;verticalAlign=middle;spacingLeft=4;spacingRight=4;overflow=hidden;points=[[0,0.5],[1,0.5]];portConstraint=eastwest;rotatable=0;whiteSpace=wrap;html=1;" parent="7x0IxUIYHhtHnQcjcIC3-58" vertex="1">
          <mxGeometry y="80" width="140" height="50" as="geometry" />
        </mxCell>
        <mxCell id="7x0IxUIYHhtHnQcjcIC3-63" style="edgeStyle=orthogonalEdgeStyle;rounded=0;orthogonalLoop=1;jettySize=auto;html=1;entryX=0;entryY=0.25;entryDx=0;entryDy=0;exitX=0.5;exitY=0;exitDx=0;exitDy=0;" parent="1" source="7x0IxUIYHhtHnQcjcIC3-38" target="7x0IxUIYHhtHnQcjcIC3-58" edge="1">
          <mxGeometry relative="1" as="geometry">
            <Array as="points">
              <mxPoint x="950" y="140" />
              <mxPoint x="1065" y="140" />
              <mxPoint x="1065" y="63" />
            </Array>
          </mxGeometry>
        </mxCell>
        <mxCell id="7x0IxUIYHhtHnQcjcIC3-64" style="edgeStyle=orthogonalEdgeStyle;rounded=0;orthogonalLoop=1;jettySize=auto;html=1;entryX=1;entryY=0.25;entryDx=0;entryDy=0;" parent="1" source="7x0IxUIYHhtHnQcjcIC3-54" target="7x0IxUIYHhtHnQcjcIC3-58" edge="1">
          <mxGeometry relative="1" as="geometry">
            <Array as="points">
              <mxPoint x="1320" y="585" />
              <mxPoint x="1320" y="63" />
            </Array>
          </mxGeometry>
        </mxCell>
        <mxCell id="7x0IxUIYHhtHnQcjcIC3-65" value="PostgreSQL" style="swimlane;fontStyle=0;childLayout=stackLayout;horizontal=1;startSize=30;horizontalStack=0;resizeParent=1;resizeParentMax=0;resizeLast=0;collapsible=1;marginBottom=0;whiteSpace=wrap;html=1;" parent="1" vertex="1">
          <mxGeometry x="1110" y="370" width="140" height="160" as="geometry" />
        </mxCell>
        <mxCell id="7x0IxUIYHhtHnQcjcIC3-66" value="Хранение метаданных текстов" style="text;strokeColor=none;fillColor=none;align=left;verticalAlign=middle;spacingLeft=4;spacingRight=4;overflow=hidden;points=[[0,0.5],[1,0.5]];portConstraint=eastwest;rotatable=0;whiteSpace=wrap;html=1;" parent="7x0IxUIYHhtHnQcjcIC3-65" vertex="1">
          <mxGeometry y="30" width="140" height="30" as="geometry" />
        </mxCell>
        <mxCell id="7x0IxUIYHhtHnQcjcIC3-67" value="&lt;p&gt;Поля: ID, Title, Abstract, Concepts, Referenced_works, Related_works, Best_oa_location/text&lt;/p&gt;" style="text;strokeColor=none;fillColor=none;align=left;verticalAlign=middle;spacingLeft=4;spacingRight=4;overflow=hidden;points=[[0,0.5],[1,0.5]];portConstraint=eastwest;rotatable=0;whiteSpace=wrap;html=1;" parent="7x0IxUIYHhtHnQcjcIC3-65" vertex="1">
          <mxGeometry y="60" width="140" height="100" as="geometry" />
        </mxCell>
        <mxCell id="7x0IxUIYHhtHnQcjcIC3-69" style="edgeStyle=orthogonalEdgeStyle;rounded=0;orthogonalLoop=1;jettySize=auto;html=1;entryX=0;entryY=0.25;entryDx=0;entryDy=0;" parent="1" source="7x0IxUIYHhtHnQcjcIC3-40" target="7x0IxUIYHhtHnQcjcIC3-65" edge="1">
          <mxGeometry relative="1" as="geometry" />
        </mxCell>
        <mxCell id="7x0IxUIYHhtHnQcjcIC3-70" value="FAISS" style="swimlane;fontStyle=0;childLayout=stackLayout;horizontal=1;startSize=30;horizontalStack=0;resizeParent=1;resizeParentMax=0;resizeLast=0;collapsible=1;marginBottom=0;whiteSpace=wrap;html=1;" parent="1" vertex="1">
          <mxGeometry x="1110" y="205" width="140" height="60" as="geometry" />
        </mxCell>
        <mxCell id="7x0IxUIYHhtHnQcjcIC3-73" value="Хранение векторов и поиск сходства" style="text;strokeColor=none;fillColor=none;align=left;verticalAlign=middle;spacingLeft=4;spacingRight=4;overflow=hidden;points=[[0,0.5],[1,0.5]];portConstraint=eastwest;rotatable=0;whiteSpace=wrap;html=1;" parent="7x0IxUIYHhtHnQcjcIC3-70" vertex="1">
          <mxGeometry y="30" width="140" height="30" as="geometry" />
        </mxCell>
        <mxCell id="7x0IxUIYHhtHnQcjcIC3-74" value="" style="edgeStyle=orthogonalEdgeStyle;rounded=0;orthogonalLoop=1;jettySize=auto;html=1;entryX=0;entryY=0.5;entryDx=0;entryDy=0;" parent="1" source="7x0IxUIYHhtHnQcjcIC3-39" target="7x0IxUIYHhtHnQcjcIC3-70" edge="1">
          <mxGeometry relative="1" as="geometry" />
        </mxCell>
      </root>
    </mxGraphModel>
  </diagram>
</mxfile>
